<svg height="21" viewBox="0 0 637 170" fill="none" xmlns="http://www.w3.org/2000/svg">
<path d="M331.435 142.982H322.576C318.833 142.982 315.777 139.925 315.777 136.182V77.2905L281.901 139.426C280.716 141.609 278.408 142.982 275.913 142.982H273.604C271.109 142.982 268.801 141.609 267.615 139.426L233.553 77.2282V136.12C233.553 139.863 230.496 142.919 226.753 142.919H217.895C214.151 142.919 211.095 139.863 211.095 136.12V35.4926C211.095 31.7495 214.151 28.6927 217.895 28.6927H227.315C229.81 28.6927 232.118 30.0652 233.304 32.2486L274.727 107.734L316.276 32.2486C317.461 30.0652 319.769 28.6927 322.265 28.6927H331.56C335.303 28.6927 338.36 31.7495 338.36 35.4926V136.182C338.36 139.925 335.303 142.982 331.56 142.982H331.435Z" fill="#05153F"/>
<path d="M447.721 100.497C447.721 127.323 426.698 145.227 401.806 145.227C376.914 145.227 355.392 127.323 355.392 100.497C355.392 73.6719 376.415 55.7674 401.806 55.7674C427.197 55.7674 447.721 73.6719 447.721 100.497ZM425.887 100.497C425.887 84.6516 413.597 75.0444 401.806 75.0444C390.015 75.0444 377.226 84.5893 377.226 100.497C377.226 116.406 389.516 125.95 401.806 125.95C414.096 125.95 425.887 116.406 425.887 100.497Z" fill="#05153F"/>
<path d="M527.948 142.982H466C462.257 142.982 459.2 139.925 459.2 136.182V130.879C459.2 129.195 459.824 127.635 460.884 126.388L504.928 76.2926H467.185C463.442 76.2926 460.385 73.2357 460.385 69.4926V64.689C460.385 60.9459 463.442 57.889 467.185 57.889H525.889C529.632 57.889 532.689 60.9459 532.689 64.689V70.3036C532.689 71.988 532.065 73.5476 531.005 74.7953L486.961 124.579H527.948C531.691 124.579 534.748 127.635 534.748 131.378V136.182C534.748 139.925 531.691 142.982 527.948 142.982Z" fill="#05153F"/>
<path d="M636.498 100.497C636.498 127.323 615.474 145.227 590.582 145.227C565.691 145.227 544.168 127.323 544.168 100.497C544.168 73.6719 565.192 55.7674 590.582 55.7674C615.973 55.7674 636.498 73.6719 636.498 100.497ZM614.663 100.497C614.663 84.6517 602.373 75.0444 590.582 75.0444C578.791 75.0444 566.003 84.5893 566.003 100.497C566.003 116.406 578.292 125.95 590.582 125.95C602.872 125.95 614.663 116.406 614.663 100.497Z" fill="#05153F"/>
<path d="M87.3237 13.9715C66.4867 13.9715 47.112 19.863 30.8638 29.9905C27.5897 32.0312 23.281 31.0314 21.2402 27.7572C19.1994 24.483 20.1993 20.1744 23.4735 18.1336C41.8962 6.65073 63.8242 3.05176e-05 87.3237 3.05176e-05C110.823 3.05176e-05 132.751 6.65073 151.174 18.1336C154.448 20.1744 155.448 24.483 153.407 27.7572C151.366 31.0314 147.058 32.0312 143.783 29.9905C127.535 19.863 108.161 13.9715 87.3237 13.9715ZM86.5473 41.1383C70.5848 41.1383 55.7333 45.8252 43.2604 53.9018C36.8132 58.0766 31.0005 63.1582 26.0028 68.9675C20.8676 74.9366 16.5962 81.6703 13.3809 88.9726C11.8262 92.5036 7.7034 94.1057 4.17241 92.5509C0.641419 90.9962 -0.960656 86.8734 0.594076 83.3424C4.37182 74.7627 9.38716 66.8583 15.4113 59.8558C21.2738 53.0412 28.0947 47.0773 35.6664 42.1743C50.3308 32.6786 67.8073 27.1668 86.5473 27.1668C95.7832 27.1668 104.719 28.5059 113.167 31.0056C116.867 32.1003 118.978 35.9868 117.884 39.6864C116.789 43.3859 112.902 45.4976 109.203 44.4029C102.028 42.2799 94.4267 41.1383 86.5473 41.1383ZM127.768 44.241C129.865 41.0026 134.19 40.0773 137.428 42.1743C145 47.0773 151.821 53.0412 157.683 59.8558C163.708 66.8583 168.723 74.7627 172.501 83.3424C174.055 86.8734 172.453 90.9962 168.922 92.5509C165.391 94.1057 161.268 92.5036 159.714 88.9726C156.498 81.6703 152.227 74.9366 147.092 68.9675C142.094 63.1582 136.281 58.0766 129.834 53.9018C126.596 51.8048 125.671 47.4795 127.768 44.241ZM86.7232 65.9765C76.475 65.9765 66.9388 69.032 58.918 74.3096C54.7703 77.0389 51.0259 80.3641 47.8036 84.1702C45.3107 87.1148 40.9028 87.4809 37.9582 84.988C35.0136 82.4951 34.6475 78.0872 37.1404 75.1426C41.2172 70.3271 45.9639 66.1087 51.2383 62.6382C61.4564 55.9147 73.6478 52.005 86.7232 52.005C99.7986 52.005 111.99 55.9147 122.208 62.6382C127.482 66.1087 132.229 70.3271 136.306 75.1426C140.495 80.0909 143.981 85.6738 146.605 91.7304C150.165 99.9452 152.136 109.022 152.136 118.547C152.136 120.313 151.829 122.64 151.586 124.386C151.496 125.03 151.41 125.626 151.331 126.174C151.159 127.372 151.02 128.339 150.945 129.074C150.556 132.913 147.129 135.709 143.291 135.32C139.452 134.931 136.656 131.504 137.045 127.665C137.151 126.621 137.359 125.178 137.552 123.835L137.552 123.833L137.552 123.831L137.553 123.83L137.553 123.83C137.621 123.352 137.688 122.887 137.748 122.457C138.019 120.511 138.164 119.17 138.164 118.547C138.164 110.963 136.597 103.775 133.785 97.2853C131.71 92.4952 128.953 88.0809 125.643 84.1702C122.42 80.3641 118.676 77.0389 114.528 74.3096C106.508 69.032 96.9713 65.9765 86.7232 65.9765ZM33.3326 93.0228C37.0329 94.115 39.1472 98.0001 38.055 101.7C36.9274 105.521 36.1882 110.209 35.8767 117.241C35.6465 122.44 36.2766 127.773 37.458 133.195L40.0767 145.213C40.8981 148.983 38.508 152.705 34.7384 153.526C30.9687 154.348 27.2469 151.958 26.4256 148.188L23.8068 136.169C22.4471 129.929 21.6211 123.348 21.9189 116.623C22.2602 108.918 23.0991 103.017 24.655 97.7452C25.7472 94.0449 29.6323 91.9306 33.3326 93.0228ZM79.5214 94.9258C83.8915 93.5213 88.7005 93.314 93.4828 94.5955C98.1073 95.8346 101.813 98.3287 105.015 101.862C106.611 103.623 107.945 105.603 108.976 107.735L108.979 107.74L108.979 107.74L108.981 107.745C110.344 110.561 111.419 112.862 111.861 115.82C112.581 120.641 112.062 123.898 111.249 126.285C110.4 128.782 109.136 130.68 107.537 133.081L107.496 133.142C105.358 136.354 106.228 140.691 109.439 142.829C112.65 144.967 116.987 144.098 119.125 140.886L119.277 140.659L119.373 140.515C120.867 138.278 123.027 135.045 124.476 130.785C126.053 126.152 126.707 120.633 125.679 113.756C124.904 108.572 122.984 104.606 121.638 101.826L121.555 101.654L121.553 101.65L121.553 101.649L121.55 101.645C119.941 98.32 117.86 95.2304 115.368 92.4803C110.656 87.2802 104.71 83.1393 97.0989 81.1001C89.646 79.1031 82.0975 79.4226 75.2465 81.6244C71.7115 82.7605 68.3634 84.397 65.3062 86.473C62.1645 88.6062 59.3261 91.2063 56.9072 94.2093C53.6247 98.2843 51.124 103.09 49.6889 108.446C48.7012 112.132 48.3457 117.153 48.3566 121.619C48.3674 126.076 48.7458 131.001 49.6951 134.497C52.9081 146.327 57.8356 154.581 62.1207 159.968C64.2566 162.654 66.2196 164.61 67.7092 165.936C68.454 166.598 69.0808 167.103 69.5523 167.463C69.7881 167.643 69.9852 167.787 70.139 167.896C70.1771 167.923 70.2124 167.948 70.2451 167.971C70.2655 167.985 70.2848 167.998 70.3031 168.011C70.3148 168.019 70.326 168.027 70.3368 168.034L70.3843 168.067L70.4102 168.084L70.4405 168.104L70.4539 168.113L70.4602 168.117C70.4632 168.119 70.4662 168.121 74.3176 162.293L70.4662 168.121C73.685 170.248 78.0187 169.363 80.1458 166.145C82.2599 162.945 81.3985 158.645 78.2276 156.504L78.2241 156.502L78.1877 156.476C78.1655 156.459 78.1355 156.437 78.0982 156.41C78.0869 156.401 78.0749 156.392 78.0622 156.382C78.0519 156.375 78.0411 156.366 78.0299 156.358C77.823 156.2 77.4673 155.917 76.9963 155.497C76.0543 154.659 74.6524 153.279 73.0549 151.271C69.8733 147.271 65.8604 140.711 63.1782 130.835C62.7098 129.11 62.3379 125.629 62.328 121.585C62.3182 117.551 62.6716 113.975 63.1844 112.062C64.1061 108.622 65.7023 105.563 67.7878 102.974C69.3286 101.061 71.1416 99.3986 73.1549 98.0315C75.1143 96.701 77.2597 95.6527 79.5214 94.9258ZM91.6301 127.623C95.4187 125.845 98.0449 121.893 98.0449 117.327C98.0449 111.071 93.1154 106 87.0449 106C80.9745 106 76.0449 111.071 76.0449 117.327C76.0449 121.893 78.6711 125.823 82.4598 127.623V138.415C82.4598 140.947 84.5126 143 87.0449 143C89.5772 143 91.6301 140.947 91.6301 138.415V127.623Z" fill="#0E67DC"/>
</svg>
